<svg width="27" height="27" viewBox="0 0 27 27" fill="none" xmlns="http://www.w3.org/2000/svg">
<path d="M6.60297 0C6.81705 0 7.02236 0.0874868 7.17373 0.243214C7.32511 0.398942 7.41015 0.610153 7.41015 0.830385V1.66077H20.3251V0.830385C20.3251 0.610153 20.4101 0.398942 20.5615 0.243214C20.7129 0.0874868 20.9182 0 21.1322 0C21.3463 0 21.5516 0.0874868 21.703 0.243214C21.8544 0.398942 21.9394 0.610153 21.9394 0.830385V1.66077H23.5538C24.4101 1.66077 25.2313 2.01072 25.8368 2.63363C26.4423 3.25654 26.7825 4.10138 26.7825 4.98231V23.2508C26.7825 24.1317 26.4423 24.9766 25.8368 25.5995C25.2313 26.2224 24.4101 26.5723 23.5538 26.5723H4.18143C3.32511 26.5723 2.50387 26.2224 1.89837 25.5995C1.29287 24.9766 0.952698 24.1317 0.952698 23.2508V4.98231C0.952698 4.10138 1.29287 3.25654 1.89837 2.63363C2.50387 2.01072 3.32511 1.66077 4.18143 1.66077H5.79579V0.830385C5.79579 0.610153 5.88083 0.398942 6.03221 0.243214C6.18358 0.0874868 6.38889 0 6.60297 0V0ZM4.18143 3.32154C3.75327 3.32154 3.34265 3.49651 3.0399 3.80797C2.73715 4.11942 2.56706 4.54185 2.56706 4.98231V23.2508C2.56706 23.6912 2.73715 24.1137 3.0399 24.4251C3.34265 24.7366 3.75327 24.9116 4.18143 24.9116H23.5538C23.9819 24.9116 24.3926 24.7366 24.6953 24.4251C24.9981 24.1137 25.1682 23.6912 25.1682 23.2508V4.98231C25.1682 4.54185 24.9981 4.11942 24.6953 3.80797C24.3926 3.49651 23.9819 3.32154 23.5538 3.32154H4.18143Z" fill="white"/>
</svg>
