<svg width="20" height="23" viewBox="0 0 20 23" fill="none" xmlns="http://www.w3.org/2000/svg">
<path d="M10 10.4875C7.049 10.4875 6.451 5.84345 6.451 5.84345C6.1 3.42695 7.166 0.699951 9.961 0.699951C12.769 0.699951 13.835 3.42695 13.484 5.84345C13.484 5.84345 12.951 10.4875 10 10.4875ZM10 13.957L13.536 11.5C16.643 11.5 19.412 14.6455 19.412 17.6155V20.977C19.412 20.977 14.667 22.5025 10 22.5025C5.255 22.5025 0.587997 20.977 0.587997 20.977V17.6155C0.587997 14.578 3.11 11.5675 6.399 11.5675L10 13.957Z" fill="white"/>
</svg>
