<svg width="20" height="20" viewBox="0 0 20 20" fill="none" xmlns="http://www.w3.org/2000/svg">
<path fill-rule="evenodd" clip-rule="evenodd" d="M6.22084 0.888496C7.19834 0.843496 7.51001 0.833496 10 0.833496C12.49 0.833496 12.8017 0.844329 13.7783 0.888496C14.755 0.932663 15.4217 1.0885 16.005 1.31433C16.6158 1.54516 17.17 1.906 17.6283 2.37266C18.095 2.83016 18.455 3.3835 18.685 3.99516C18.9117 4.5785 19.0667 5.24516 19.1117 6.22016C19.1567 7.19933 19.1667 7.511 19.1667 10.0002C19.1667 12.4902 19.1558 12.8018 19.1117 13.7793C19.0675 14.7543 18.9117 15.421 18.685 16.0043C18.455 16.6161 18.0944 17.1703 17.6283 17.6285C17.17 18.0952 16.6158 18.4552 16.005 18.6852C15.4217 18.9118 14.755 19.0668 13.78 19.1118C12.8017 19.1568 12.49 19.1668 10 19.1668C7.51001 19.1668 7.19834 19.156 6.22084 19.1118C5.24584 19.0677 4.57918 18.9118 3.99584 18.6852C3.38411 18.4551 2.82986 18.0945 2.37168 17.6285C1.90533 17.1707 1.54444 16.6167 1.31418 16.0052C1.08834 15.4218 0.933343 14.7552 0.888343 13.7802C0.843343 12.801 0.833344 12.4893 0.833344 10.0002C0.833344 7.51016 0.844177 7.1985 0.888343 6.22183C0.93251 5.24516 1.08834 4.5785 1.31418 3.99516C1.54478 3.38356 1.90594 2.82959 2.37251 2.37183C2.83004 1.90558 3.38374 1.5447 3.99501 1.31433C4.57834 1.0885 5.24501 0.933496 6.22001 0.888496H6.22084ZM13.7042 2.5385C12.7375 2.49433 12.4475 2.48516 10 2.48516C7.55251 2.48516 7.26251 2.49433 6.29584 2.5385C5.40168 2.57933 4.91668 2.7285 4.59334 2.85433C4.16584 3.021 3.86001 3.2185 3.53918 3.53933C3.23505 3.83521 3.00099 4.1954 2.85418 4.5935C2.72834 4.91683 2.57918 5.40183 2.53834 6.296C2.49418 7.26266 2.48501 7.55266 2.48501 10.0002C2.48501 12.4477 2.49418 12.7377 2.53834 13.7043C2.57918 14.5985 2.72834 15.0835 2.85418 15.4068C3.00084 15.8043 3.23501 16.1652 3.53918 16.461C3.83501 16.7652 4.19584 16.9993 4.59334 17.146C4.91668 17.2718 5.40168 17.421 6.29584 17.4618C7.26251 17.506 7.55168 17.5152 10 17.5152C12.4483 17.5152 12.7375 17.506 13.7042 17.4618C14.5983 17.421 15.0833 17.2718 15.4067 17.146C15.8342 16.9793 16.14 16.7818 16.4608 16.461C16.765 16.1652 16.9992 15.8043 17.1458 15.4068C17.2717 15.0835 17.4208 14.5985 17.4617 13.7043C17.5058 12.7377 17.515 12.4477 17.515 10.0002C17.515 7.55266 17.5058 7.26266 17.4617 6.296C17.4208 5.40183 17.2717 4.91683 17.1458 4.5935C16.9792 4.166 16.7817 3.86016 16.4608 3.53933C16.165 3.23522 15.8048 3.00117 15.4067 2.85433C15.0833 2.7285 14.5983 2.57933 13.7042 2.5385ZM8.82918 12.826C9.48306 13.0982 10.2112 13.1349 10.8891 12.9299C11.5671 12.7249 12.1528 12.2909 12.5464 11.702C12.9399 11.1131 13.1167 10.4059 13.0467 9.70108C12.9767 8.99628 12.6642 8.33764 12.1625 7.83766C11.8427 7.51806 11.456 7.27334 11.0303 7.12112C10.6046 6.9689 10.1504 6.91296 9.70042 6.95734C9.25048 7.00172 8.81597 7.14531 8.42818 7.37777C8.04039 7.61023 7.70896 7.92578 7.45776 8.30171C7.20656 8.67763 7.04183 9.10457 6.97544 9.5518C6.90905 9.99902 6.94264 10.4554 7.07379 10.8881C7.20495 11.3208 7.43041 11.719 7.73394 12.0541C8.03748 12.3892 8.41153 12.6528 8.82918 12.826ZM6.66834 6.6685C7.10586 6.23098 7.62528 5.88392 8.19693 5.64713C8.76857 5.41035 9.38126 5.28847 10 5.28847C10.6188 5.28847 11.2314 5.41035 11.8031 5.64713C12.3747 5.88391 12.8942 6.23098 13.3317 6.6685C13.7692 7.10602 14.1163 7.62543 14.353 8.19708C14.5898 8.76873 14.7117 9.38142 14.7117 10.0002C14.7117 10.6189 14.5898 11.2316 14.353 11.8032C14.1163 12.3749 13.7692 12.8943 13.3317 13.3318C12.4481 14.2154 11.2496 14.7119 10 14.7119C8.75039 14.7119 7.55196 14.2154 6.66834 13.3318C5.78473 12.4482 5.28832 11.2498 5.28832 10.0002C5.28832 8.75055 5.78473 7.55211 6.66834 6.6685ZM15.7567 5.99016C15.8651 5.88789 15.9519 5.7649 16.0119 5.62847C16.072 5.49205 16.104 5.34497 16.1062 5.19594C16.1084 5.04691 16.0806 4.89895 16.0246 4.76084C15.9685 4.62272 15.8854 4.49726 15.78 4.39186C15.6746 4.28647 15.5491 4.20329 15.411 4.14726C15.2729 4.09123 15.1249 4.06348 14.9759 4.06565C14.8269 4.06782 14.6798 4.09987 14.5434 4.15991C14.4069 4.21995 14.284 4.30674 14.1817 4.41516C13.9828 4.62602 13.8739 4.9061 13.8781 5.19594C13.8823 5.48578 13.9993 5.76256 14.2043 5.96753C14.4093 6.1725 14.6861 6.28952 14.9759 6.29375C15.2657 6.29797 15.5458 6.18907 15.7567 5.99016Z" fill="#D01267"/>
</svg>
