<svg width="25" height="32" viewBox="0 0 25 32" fill="none" xmlns="http://www.w3.org/2000/svg">
<path d="M14.3643 0.493188L16.2088 2.8542C18.33 3.17462 20.8202 1.60623 22.2826 3.47818C23.7451 5.35012 22.5198 8.53748 22.7701 11.2526L24.6146 13.6136C25.1285 14.2714 25.1285 15.3338 24.6146 15.9915L12.5066 31.5067C11.9796 32.1644 11.1495 32.1644 10.6357 31.5067L0.385375 18.3863C-0.128458 17.7285 -0.128458 16.6661 0.385375 15.9915L12.5066 0.493188C12.6285 0.336849 12.7733 0.212816 12.9326 0.128188C13.092 0.0435606 13.2629 0 13.4354 0C13.608 0 13.7789 0.0435606 13.9382 0.128188C14.0976 0.212816 14.2424 0.336849 14.3643 0.493188ZM15.1285 4.28767L14.3643 5.2658L20.886 13.6136L21.6502 12.6355C21.3999 11.6237 21.3867 10.5781 21.4526 9.56621C21.4789 9.04341 21.5184 8.52062 21.5711 8.01468C21.7293 6.32825 21.8083 5.2658 21.3472 4.67555C20.886 4.08529 20.056 4.18648 18.7385 4.38885C18.3432 4.45631 17.9348 4.5069 17.5264 4.54063C16.7358 4.62495 15.919 4.60809 15.1285 4.28767ZM20.4249 5.85605C20.9387 6.51376 20.9387 7.59308 20.4249 8.25079C19.9111 8.90849 19.0679 8.90849 18.554 8.25079C18.0402 7.59308 18.0402 6.51376 18.554 5.85605C19.0679 5.19834 19.9111 5.19834 20.4249 5.85605ZM11.5711 6.46317L10.6357 7.64367L19.0283 18.3863L19.9506 17.1889L11.5711 6.46317ZM9.70026 8.84104L8.778 10.0384L17.1574 20.7641L18.0929 19.5836L9.70026 8.84104ZM7.84256 11.2358L6.90711 12.4163L15.2997 23.1589L16.222 21.9615L7.84256 11.2358ZM5.98485 13.6136L5.04941 14.811L13.4289 25.5367L14.3643 24.3394L5.98485 13.6136ZM4.11397 15.9915L3.17852 17.1889L11.5711 27.9315L12.5066 26.7341L4.11397 15.9915Z" fill="white"/>
</svg>
